<?xml version="1.0" encoding="utf-8"?>
<!-- Generator: Adobe Illustrator 25.4.1, SVG Export Plug-In . SVG Version: 6.00 Build 0)  -->
<svg version="1.2" baseProfile="tiny" id="Layer_1" xmlns="http://www.w3.org/2000/svg" xmlns:xlink="http://www.w3.org/1999/xlink"
	 x="0px" y="0px" viewBox="0 0 75.8 90.7" overflow="visible" xml:space="preserve">
<polygon fill="none" points="0.3,32.7 0.3,80.4 75.5,80.4 75.5,32.7 37.9,0.3 "/>
<g>
	
		<polygon fill="none" stroke="#304D60" stroke-width="0.52" stroke-linecap="round" stroke-linejoin="round" stroke-miterlimit="10" points="
		75.5,80.4 75.5,32.7 37.9,0.3 0.3,32.7 0.3,80.4 	"/>
	<path fill="#304D60" d="M63.3,73.6h5.5V73H64v-5.2h4v-0.6h-4V59h4.8v-0.6h-5.5V73.6z M56.3,73.9c0.9,0,1.7-0.2,2.3-0.5
		c0.7-0.3,1.2-0.8,1.6-1.5c0.4-0.6,0.6-1.4,0.6-2.2c0-0.7-0.1-1.3-0.3-1.8s-0.6-1-1.1-1.5c-0.7-0.6-1.7-1.3-2.9-2
		c-1-0.6-1.7-1.1-2.2-1.6c-0.4-0.5-0.6-1.1-0.6-1.8c0-0.7,0.2-1.3,0.7-1.7s1-0.6,1.7-0.6c0.7,0,1.2,0.2,1.8,0.5s1,0.8,1.3,1.3v-1
		c-0.7-0.9-1.7-1.4-3-1.4c-0.9,0-1.7,0.3-2.3,0.8c-0.6,0.5-0.9,1.2-0.9,2.2c0,0.7,0.2,1.3,0.5,1.8c0.3,0.4,0.6,0.7,1,1
		c0.4,0.3,0.8,0.6,1.4,1l0.7,0.4c1,0.6,1.7,1.1,2.2,1.5c0.5,0.4,0.9,0.9,1.1,1.3s0.3,1,0.3,1.7c0,0.7-0.2,1.3-0.5,1.9
		s-0.8,1-1.4,1.3c-0.6,0.3-1.2,0.4-1.9,0.4c-1,0-1.8-0.2-2.5-0.7c-0.7-0.5-1.2-1.1-1.6-1.9v1.1C53.3,73.2,54.6,73.9,56.3,73.9
		 M45.4,74c0.9,0,1.7-0.2,2.3-0.6c0.7-0.4,1.2-0.9,1.6-1.6c0.4-0.7,0.6-1.5,0.6-2.4v-11h-0.7v11.1c0,0.8-0.2,1.5-0.5,2.1
		s-0.8,1.1-1.4,1.4s-1.2,0.5-2,0.5s-1.4-0.2-2-0.5c-0.6-0.3-1-0.8-1.4-1.4s-0.5-1.3-0.5-2.1V58.4h-0.7v11.1c0,0.9,0.2,1.7,0.6,2.4
		c0.4,0.7,0.9,1.2,1.6,1.6C43.7,73.8,44.5,74,45.4,74 M30.3,73.4c-1.3,0-2.5-0.3-3.6-1c-1.1-0.7-2-1.6-2.6-2.7c-0.7-1.2-1-2.4-1-3.7
		c0-1.3,0.3-2.6,1-3.7s1.5-2,2.6-2.7s2.3-1,3.6-1c1.3,0,2.5,0.3,3.6,1s2,1.6,2.6,2.7c0.7,1.1,1,2.4,1,3.7c0,1.3-0.3,2.6-1,3.7
		c-0.7,1.1-1.5,2.1-2.7,2.7C32.8,73.1,31.6,73.4,30.3,73.4 M30.3,74c1.4,0,2.8-0.4,4-1.1c1.2-0.7,2.2-1.7,2.9-2.9s1.1-2.6,1.1-4.1
		c0-1.4-0.4-2.8-1.1-4c-0.7-1.2-1.7-2.2-2.9-2.9c-1.2-0.7-2.5-1.1-4-1.1c-1.4,0-2.7,0.4-4,1.1s-2.2,1.7-2.9,2.9
		c-0.7,1.2-1.1,2.5-1.1,3.9c0,1.4,0.4,2.8,1.1,4s1.7,2.2,2.9,3S28.9,74,30.3,74 M8.1,73.6h0.7v-5.8h10.4v5.8h0.7V58.4h-0.7v8.8H8.7
		v-8.8H8.1V73.6z"/>
	<path fill="none" stroke="#304D60" stroke-width="3.000000e-02" d="M63.3,73.6h5.5V73H64v-5.2h4v-0.6h-4V59h4.8v-0.6h-5.5V73.6z
		 M56.3,73.9c0.9,0,1.7-0.2,2.3-0.5c0.7-0.3,1.2-0.8,1.6-1.5c0.4-0.6,0.6-1.4,0.6-2.2c0-0.7-0.1-1.3-0.3-1.8s-0.6-1-1.1-1.5
		c-0.7-0.6-1.7-1.3-2.9-2c-1-0.6-1.7-1.1-2.2-1.6c-0.4-0.5-0.6-1.1-0.6-1.8c0-0.7,0.2-1.3,0.7-1.7s1-0.6,1.7-0.6
		c0.7,0,1.2,0.2,1.8,0.5s1,0.8,1.3,1.3v-1c-0.7-0.9-1.7-1.4-3-1.4c-0.9,0-1.7,0.3-2.3,0.8c-0.6,0.5-0.9,1.2-0.9,2.2
		c0,0.7,0.2,1.3,0.5,1.8c0.3,0.4,0.6,0.7,1,1c0.4,0.3,0.8,0.6,1.4,1l0.7,0.4c1,0.6,1.7,1.1,2.2,1.5c0.5,0.4,0.9,0.9,1.1,1.3
		s0.3,1,0.3,1.7c0,0.7-0.2,1.3-0.5,1.9s-0.8,1-1.4,1.3c-0.6,0.3-1.2,0.4-1.9,0.4c-1,0-1.8-0.2-2.5-0.7c-0.7-0.5-1.2-1.1-1.6-1.9v1.1
		C53.3,73.2,54.6,73.9,56.3,73.9z M45.4,74c0.9,0,1.7-0.2,2.3-0.6c0.7-0.4,1.2-0.9,1.6-1.6c0.4-0.7,0.6-1.5,0.6-2.4v-11h-0.7v11.1
		c0,0.8-0.2,1.5-0.5,2.1s-0.8,1.1-1.4,1.4s-1.2,0.5-2,0.5s-1.4-0.2-2-0.5c-0.6-0.3-1-0.8-1.4-1.4s-0.5-1.3-0.5-2.1V58.4h-0.7v11.1
		c0,0.9,0.2,1.7,0.6,2.4c0.4,0.7,0.9,1.2,1.6,1.6C43.7,73.8,44.5,74,45.4,74z M30.3,73.4c-1.3,0-2.5-0.3-3.6-1
		c-1.1-0.7-2-1.6-2.6-2.7c-0.7-1.2-1-2.4-1-3.7c0-1.3,0.3-2.6,1-3.7s1.5-2,2.6-2.7s2.3-1,3.6-1c1.3,0,2.5,0.3,3.6,1s2,1.6,2.6,2.7
		c0.7,1.1,1,2.4,1,3.7c0,1.3-0.3,2.6-1,3.7c-0.7,1.1-1.5,2.1-2.7,2.7C32.8,73.1,31.6,73.4,30.3,73.4z M30.3,74c1.4,0,2.8-0.4,4-1.1
		c1.2-0.7,2.2-1.7,2.9-2.9s1.1-2.6,1.1-4.1c0-1.4-0.4-2.8-1.1-4c-0.7-1.2-1.7-2.2-2.9-2.9c-1.2-0.7-2.5-1.1-4-1.1
		c-1.4,0-2.7,0.4-4,1.1s-2.2,1.7-2.9,2.9c-0.7,1.2-1.1,2.5-1.1,3.9c0,1.4,0.4,2.8,1.1,4s1.7,2.2,2.9,3S28.9,74,30.3,74z M8.1,73.6
		h0.7v-5.8h10.4v5.8h0.7V58.4h-0.7v8.8H8.7v-8.8H8.1V73.6z"/>
	<path fill="#304D60" d="M56.8,49.5V34h-0.6v13.7L45,33.8v15.5h0.6V35.5L56.8,49.5z M41,49.2h0.7V34H41V49.2z M38.8,49.2L30,40.1
		l7.1-6.1h-1l-6.4,5.5V34h-0.7v15.2h0.7v-8.5l8.1,8.5L38.8,49.2L38.8,49.2z M22.2,49.5c0.9,0,1.6-0.2,2.3-0.5s1.2-0.8,1.6-1.5
		c0.4-0.6,0.6-1.4,0.6-2.2c0-0.7-0.1-1.3-0.3-1.8s-0.6-1-1.1-1.5c-0.7-0.6-1.7-1.3-2.9-2c-1-0.6-1.7-1.1-2.2-1.6
		c-0.4-0.5-0.6-1.1-0.6-1.8c0-0.7,0.2-1.3,0.7-1.7c0.5-0.4,1-0.6,1.7-0.6c0.6,0,1.2,0.2,1.8,0.5c0.5,0.3,1,0.8,1.3,1.3v-1
		c-0.7-0.9-1.7-1.4-3-1.4c-0.9,0-1.7,0.3-2.3,0.8C19.3,35,19,35.7,19,36.7c0,0.7,0.2,1.3,0.5,1.8c0.3,0.4,0.6,0.7,1,1
		c0.4,0.3,0.9,0.6,1.4,1l0.6,0.4c1,0.6,1.7,1.1,2.2,1.5c0.5,0.4,0.9,0.9,1.1,1.3c0.2,0.5,0.3,1,0.3,1.7c0,0.7-0.2,1.3-0.5,1.9
		c-0.3,0.5-0.8,1-1.4,1.3C23.7,48.8,23,49,22.4,49c-1,0-1.8-0.2-2.5-0.7s-1.2-1.1-1.6-1.9v1.1C19.2,48.8,20.5,49.5,22.2,49.5"/>
	<path fill="none" stroke="#304D60" stroke-width="3.000000e-02" d="M56.8,49.5V34h-0.6v13.7L45,33.8v15.5h0.6V35.5L56.8,49.5z
		 M41,49.2h0.7V34H41V49.2z M38.8,49.2L30,40.1l7.1-6.1h-1l-6.4,5.5V34h-0.7v15.2h0.7v-8.5l8.1,8.5L38.8,49.2L38.8,49.2z M22.2,49.5
		c0.9,0,1.6-0.2,2.3-0.5s1.2-0.8,1.6-1.5c0.4-0.6,0.6-1.4,0.6-2.2c0-0.7-0.1-1.3-0.3-1.8s-0.6-1-1.1-1.5c-0.7-0.6-1.7-1.3-2.9-2
		c-1-0.6-1.7-1.1-2.2-1.6c-0.4-0.5-0.6-1.1-0.6-1.8c0-0.7,0.2-1.3,0.7-1.7c0.5-0.4,1-0.6,1.7-0.6c0.6,0,1.2,0.2,1.8,0.5
		c0.5,0.3,1,0.8,1.3,1.3v-1c-0.7-0.9-1.7-1.4-3-1.4c-0.9,0-1.7,0.3-2.3,0.8C19.3,35,19,35.7,19,36.7c0,0.7,0.2,1.3,0.5,1.8
		c0.3,0.4,0.6,0.7,1,1c0.4,0.3,0.9,0.6,1.4,1l0.6,0.4c1,0.6,1.7,1.1,2.2,1.5c0.5,0.4,0.9,0.9,1.1,1.3c0.2,0.5,0.3,1,0.3,1.7
		c0,0.7-0.2,1.3-0.5,1.9c-0.3,0.5-0.8,1-1.4,1.3C23.7,48.8,23,49,22.4,49c-1,0-1.8-0.2-2.5-0.7s-1.2-1.1-1.6-1.9v1.1
		C19.2,48.8,20.5,49.5,22.2,49.5z"/>
	<path fill="#304D60" d="M74.9,89.1h0.6v-2.7c0-0.8-0.4-1.3-1.2-1.3c-0.6,0-1.1,0.3-1.4,0.7v-0.6h-0.6v3.9h0.6v-2.8
		c0.2-0.3,0.7-0.6,1.2-0.6c0.5,0,0.9,0.2,0.9,0.9L74.9,89.1L74.9,89.1z M70.4,89.1H71v-3.9h-0.6V89.1z M70.8,84.5
		c0.2,0,0.4-0.2,0.4-0.4s-0.2-0.4-0.4-0.4c-0.2,0-0.4,0.2-0.4,0.4C70.3,84.3,70.5,84.5,70.8,84.5 M69,89.1h0.8L68,86.9l1.7-1.8H69
		l-2.1,2.1v-3.6h-0.6v5.4h0.6V88l0.7-0.6L69,89.1z M62.2,88.6c0.4,0.4,0.9,0.6,1.6,0.6c1,0,1.5-0.5,1.5-1.2c0-0.9-0.8-1.1-1.5-1.2
		c-0.5-0.1-1-0.2-1-0.6c0-0.3,0.3-0.6,0.9-0.6c0.5,0,0.9,0.2,1.2,0.5l0.3-0.4c-0.3-0.3-0.8-0.6-1.4-0.6c-0.9,0-1.5,0.5-1.5,1.1
		c0,0.8,0.8,1,1.4,1.1c0.5,0.1,1,0.3,1,0.7c0,0.4-0.3,0.6-0.9,0.6c-0.5,0-1-0.3-1.3-0.6L62.2,88.6z M56.4,90.1l-0.1,0.6
		c0.1,0,0.3,0.1,0.4,0.1c0.5,0,0.9-0.2,1.1-0.8l2-4.7h-0.7l-1.3,3.2l-1.3-3.2h-0.7l1.6,3.9l-0.3,0.6c-0.1,0.3-0.3,0.4-0.6,0.4
		C56.6,90.1,56.5,90.1,56.4,90.1 M54.7,89.1h0.6v-2.8c0-0.8-0.4-1.2-1.2-1.2c-0.6,0-1.1,0.3-1.4,0.7v-2.1h-0.6v5.4h0.6v-2.8
		c0.2-0.3,0.7-0.6,1.2-0.6c0.5,0,0.9,0.2,0.9,0.9L54.7,89.1L54.7,89.1z M50.7,89.2c0.3,0,0.6-0.1,0.7-0.2l-0.2-0.4
		c-0.1,0.1-0.2,0.2-0.4,0.2c-0.3,0-0.4-0.2-0.4-0.5v-2.4h0.8v-0.5h-0.8v-1.1h-0.6v1.1h-0.6v0.5h0.6v2.6
		C49.8,88.8,50.1,89.2,50.7,89.2 M47.9,89.1h0.6v-5.4h-0.6V89.1z M46.1,88.3c-0.2,0.3-0.7,0.5-1.1,0.5c-0.6,0-1-0.3-1-0.8
		s0.4-0.8,1-0.8c0.4,0,0.8,0.2,1.1,0.5V88.3z M46.1,89.1h0.6v-2.7c0-0.9-0.7-1.3-1.5-1.3c-0.6,0-1.1,0.2-1.6,0.6l0.3,0.4
		c0.3-0.4,0.7-0.5,1.2-0.5c0.6,0,1,0.3,1,0.8v0.7c-0.3-0.4-0.8-0.5-1.3-0.5c-0.7,0-1.4,0.4-1.4,1.3c0,0.8,0.7,1.3,1.4,1.3
		c0.5,0,1-0.2,1.3-0.5L46.1,89.1L46.1,89.1z M40.8,85.6c0.9,0,1.3,0.7,1.3,1.3h-2.6C39.5,86.3,40,85.6,40.8,85.6 M38.9,87.1
		c0,1.2,0.8,2.1,2,2.1c0.6,0,1.2-0.2,1.5-0.6l-0.3-0.4c-0.3,0.3-0.8,0.5-1.2,0.5c-0.8,0-1.3-0.6-1.4-1.3h3.2v-0.2
		c0-1.2-0.7-2.1-1.9-2.1C39.7,85.1,38.9,86,38.9,87.1 M37.3,89.1h0.6v-2.8c0-0.8-0.4-1.2-1.2-1.2c-0.6,0-1.1,0.3-1.4,0.7v-2.1h-0.6
		v5.4h0.6v-2.8c0.2-0.3,0.7-0.6,1.2-0.6c0.5,0,0.9,0.2,0.9,0.9V89.1z M30.5,89.1h0.6v-3.4h0.8v-0.5h-0.8v-0.3c0-0.5,0.2-0.8,0.6-0.8
		c0.1,0,0.2,0,0.3,0.1l0.2-0.4c-0.2-0.1-0.4-0.1-0.6-0.1c-0.7,0-1.1,0.5-1.1,1.3v0.3h-0.6v0.5h0.6L30.5,89.1L30.5,89.1z M27.4,88.6
		c-0.8,0-1.3-0.7-1.3-1.5c0-0.8,0.5-1.5,1.3-1.5s1.3,0.7,1.3,1.5C28.7,87.9,28.2,88.6,27.4,88.6 M27.4,89.2c1.2,0,1.9-0.9,1.9-2.1
		s-0.7-2-1.9-2c-1.2,0-1.9,0.9-1.9,2S26.2,89.2,27.4,89.2 M20.8,85.6c0.9,0,1.3,0.7,1.3,1.3h-2.6C19.5,86.3,19.9,85.6,20.8,85.6
		 M18.9,87.1c0,1.2,0.8,2.1,2,2.1c0.6,0,1.2-0.2,1.5-0.6l-0.3-0.4c-0.3,0.3-0.8,0.5-1.2,0.5c-0.8,0-1.4-0.6-1.4-1.3h3.1v-0.2
		c0-1.2-0.7-2.1-1.9-2.1C19.7,85.1,18.9,86,18.9,87.1 M15,88.6c0.4,0.4,0.9,0.6,1.6,0.6c1,0,1.5-0.5,1.5-1.2c0-0.9-0.8-1.1-1.5-1.2
		c-0.5-0.1-0.9-0.2-0.9-0.6c0-0.3,0.3-0.6,0.9-0.6c0.5,0,0.9,0.2,1.2,0.5l0.3-0.4c-0.3-0.3-0.8-0.6-1.4-0.6c-0.9,0-1.4,0.5-1.4,1.1
		c0,0.8,0.8,1,1.4,1.1c0.5,0.1,1,0.3,1,0.7c0,0.4-0.3,0.6-0.9,0.6c-0.5,0-1-0.3-1.3-0.6L15,88.6z M13.5,89.1h0.6v-3.9h-0.6v2.9
		c-0.2,0.3-0.7,0.6-1.1,0.6c-0.5,0-0.9-0.2-0.9-0.9v-2.6h-0.6v2.8c0,0.8,0.4,1.2,1.2,1.2c0.6,0,1.1-0.3,1.4-0.6L13.5,89.1L13.5,89.1
		z M8,88.6c-0.8,0-1.3-0.7-1.3-1.5c0-0.8,0.5-1.5,1.3-1.5s1.3,0.7,1.3,1.5C9.3,87.9,8.8,88.6,8,88.6 M8,89.2c1.2,0,1.9-0.9,1.9-2.1
		s-0.7-2-1.9-2c-1.2,0-1.9,0.9-1.9,2S6.8,89.2,8,89.2 M4.4,89.1H5v-5.4H4.4V86H1.2v-2.3H0.6v5.4h0.7v-2.5h3.1V89.1z"/>
</g>
</svg>
